<?xml version="1.0" encoding="utf-8"?>
<!-- Generator: Adobe Illustrator 21.1.0, SVG Export Plug-In . SVG Version: 6.00 Build 0)  -->
<svg version="1.1" id="Слой_1" xmlns="http://www.w3.org/2000/svg" xmlns:xlink="http://www.w3.org/1999/xlink" x="0px" y="0px"
	 viewBox="0 0 800 600" style="enable-background:new 0 0 800 600;" xml:space="preserve">
<style type="text/css">
	.st0{fill:#FFFFFF;}
</style>
<title>background</title>
<title>Layer 1</title>
<g>
	<path class="st0" d="M-1-1v602h802V-1H-1z M558.2,312.2L409.9,462L399,473l-10.9-11L236.9,309.3L207,234.7L314.2,127l84.8,41.8
		l84.8-41.8L591,234.7L558.2,312.2z"/>
	<polygon points="399,168.8 399,168.8 399,168.8 399,168.8 	"/>
	<polygon points="409.9,462 399,168.8 388.1,462 	"/>
	<polygon points="399,168.8 399,168.8 399,168.8 314.2,127 236.9,309.3 399,168.8 	"/>
	<polygon points="399,168.8 399,168.8 399,168.8 	"/>
	<polygon points="207,234.7 236.9,309.3 314.2,127 	"/>
	<polygon points="399,168.8 399,168.8 236.9,309.3 388.1,462 388.1,462 	"/>
	<polygon points="399,168.8 399,168.8 399,168.8 399,168.8 591,234.7 483.8,127 	"/>
	<polygon points="558.2,312.2 591,234.7 399,168.8 	"/>
	<polygon points="388.1,462 388.1,462 399,473 409.9,462 409.9,462 	"/>
	<polygon points="399,168.8 399,168.8 409.9,462 409.9,462 558.2,312.2 399,168.8 	"/>
</g>
</svg>
